<?xml version="1.0" standalone="no"?>
<!DOCTYPE svg PUBLIC "-//W3C//DTD SVG 20010904//EN"
 "http://www.w3.org/TR/2001/REC-SVG-20010904/DTD/svg10.dtd">
<svg version="1.0" xmlns="http://www.w3.org/2000/svg"
 width="1024.000000pt" height="1024.000000pt" viewBox="0 0 1024.000000 1024.000000"
 preserveAspectRatio="xMidYMid meet">

<g transform="translate(0.000000,1024.000000) scale(0.100000,-0.100000)"
fill="#000000" stroke="none">
<path d="M4840 8934 c-19 -2 -80 -9 -135 -15 -780 -81 -1556 -428 -2140 -957
-713 -644 -1136 -1466 -1257 -2442 -17 -140 -17 -689 0 -830 95 -772 374
-1435 850 -2020 114 -139 399 -424 540 -538 571 -463 1214 -738 1962 -839 193
-26 736 -26 930 0 740 99 1382 372 1954 831 128 103 372 340 489 476 493 570
800 1264 904 2040 26 194 26 737 0 930 -101 748 -376 1391 -839 1962 -114 141
-399 426 -538 540 -574 467 -1216 742 -1972 844 -107 15 -662 28 -748 18z
m162 -581 c3 -312 5 -351 21 -374 36 -53 116 -69 169 -35 56 36 58 54 58 420
l0 336 58 -5 c318 -26 500 -54 714 -109 255 -66 454 -141 708 -267 358 -178
649 -388 935 -674 296 -295 509 -596 696 -980 208 -429 316 -839 353 -1352 l6
-82 -347 -3 c-392 -3 -387 -2 -417 -79 -26 -63 -2 -124 59 -153 28 -14 83 -16
370 -16 l336 0 -6 -72 c-39 -465 -103 -760 -242 -1113 -283 -718 -790 -1329
-1443 -1738 -239 -150 -584 -309 -835 -385 -284 -87 -505 -126 -872 -157 l-73
-6 0 336 c0 287 -2 342 -16 370 -29 61 -90 85 -153 59 -77 -30 -76 -25 -79
-417 l-3 -347 -82 6 c-513 37 -923 145 -1352 353 -384 187 -685 400 -980 696
-286 286 -496 577 -674 935 -231 466 -327 829 -376 1423 l-5 57 336 0 c286 0
341 2 369 16 85 40 94 159 16 211 -23 16 -62 18 -373 21 l-347 3 5 72 c11 153
36 358 60 482 242 1261 1147 2302 2364 2720 299 102 639 170 950 188 30 2 63
4 72 5 16 2 17 -25 20 -345z"/>
<path d="M6575 6719 c-11 -6 -327 -318 -702 -692 l-682 -681 -50 3 c-77 4
-129 -17 -186 -74 -99 -98 -102 -231 -8 -335 51 -57 115 -83 193 -79 l51 3
837 -836 c460 -460 847 -841 859 -847 53 -27 131 -3 158 49 18 34 19 83 4 113
-6 12 -387 398 -846 858 l-835 836 0 68 0 67 690 692 c521 523 691 698 695
720 13 76 -43 146 -116 146 -23 0 -51 -5 -62 -11z"/>
</g>
</svg>
